<svg xmlns="http://www.w3.org/2000/svg" viewBox="0 0 1200 520" role="img" aria-labelledby="t d"><title id="t">Prevent, detect, recover security model</title><desc id="d">Three security disciplines feed a coordinated incident response.</desc><defs><linearGradient id="bg" x2="1" y2="1"><stop stop-color="#eaf7ff"/><stop offset="1" stop-color="#ffffff"/></linearGradient><filter id="s"><feDropShadow dx="0" dy="8" stdDeviation="10" flood-opacity=".25"/></filter></defs><rect width="1200" height="520" fill="url(#bg)"/><text x="600" y="60" fill="#14324b" text-anchor="middle" font-family="Segoe UI,Arial" font-size="30" font-weight="700">SQL SERVER SECURITY</text><g font-family="Segoe UI,Arial" filter="url(#s)"><g transform="translate(70 115)"><rect width="300" height="220" rx="22" fill="#123c61" stroke="#59c3ff"/><text x="150" y="48" text-anchor="middle" fill="#66d5ff" font-size="24" font-weight="700">PREVENT</text><text x="30" y="90" fill="#d8e9f5" font-size="18">Identity · least privilege</text><text x="30" y="125" fill="#d8e9f5" font-size="18">Network · hardening</text><text x="30" y="160" fill="#d8e9f5" font-size="18">Application · encryption</text></g><g transform="translate(450 115)"><rect width="300" height="220" rx="22" fill="#24355f" stroke="#b69cff"/><text x="150" y="48" text-anchor="middle" fill="#c7b6ff" font-size="24" font-weight="700">DETECT</text><text x="30" y="90" fill="#e6e0f7" font-size="18">Audit · SIEM</text><text x="30" y="125" fill="#e6e0f7" font-size="18">EDR · alerts</text><text x="30" y="160" fill="#e6e0f7" font-size="18">Threat hunt · evidence</text></g><g transform="translate(830 115)"><rect width="300" height="220" rx="22" fill="#164b48" stroke="#62e0b4"/><text x="150" y="48" text-anchor="middle" fill="#6ee7bd" font-size="24" font-weight="700">RECOVER</text><text x="30" y="90" fill="#d9f5eb" font-size="18">Isolated backups</text><text x="30" y="125" fill="#d9f5eb" font-size="18">Clean restore · CHECKDB</text><text x="30" y="160" fill="#d9f5eb" font-size="18">Tested RPO · RTO</text></g></g><path d="M220 350v35h760v-35M600 335v50" fill="none" stroke="#8fc8e8" stroke-width="4"/><path d="M600 385l-10-14h20z" fill="#8fc8e8" transform="rotate(180 600 385)"/><rect x="365" y="395" width="470" height="82" rx="20" fill="#0a223c" stroke="#f9b35e" stroke-width="2"/><text x="600" y="446" fill="#ffd08a" text-anchor="middle" font-family="Segoe UI,Arial" font-size="25" font-weight="700">INCIDENT RESPONSE</text></svg>
